{
    "asset" : {
        "generator" : "Khronos glTF Blender I/O v1.6.16",
        "version" : "2.0"
    },
    "scene" : 0,
    "scenes" : [
        {
            "name" : "Scene",
            "nodes" : [
                8,
                9,
                10,
                11
            ]
        }
    ],
    "nodes" : [
        {
            "mesh" : 0,
            "name" : "aluminum",
            "scale" : [
                0.5,
                0.5,
                0.5
            ],
            "translation" : [
                -0.008510878309607506,
                -2.4399566650390625,
                -4.659529209136963
            ]
        },
        {
            "mesh" : 1,
            "name" : "black_krinkle",
            "scale" : [
                0.5,
                0.5,
                0.5
            ],
            "translation" : [
                -0.4891597032546997,
                -0.7433894872665405,
                -0.00020546202722471207
            ]
        },
        {
            "mesh" : 2,
            "name" : "dish",
            "scale" : [
                0.5,
                0.5,
                0.5
            ],
            "translation" : [
                0.0021984409540891647,
                1.9320663213729858,
                -0.10118215531110764
            ]
        },
        {
            "mesh" : 3,
            "name" : "foil_gold",
            "scale" : [
                0.5,
                0.5,
                0.5
            ],
            "translation" : [
                0.0834469273686409,
                -0.7211812734603882,
                -4.587480545043945
            ]
        },
        {
            "mesh" : 4,
            "name" : "foil_gold_2",
            "scale" : [
                0.5,
                0.5,
                0.5
            ],
            "translation" : [
                0.0672239139676094,
                0.6237049102783203,
                0.06045961380004883
            ]
        },
        {
            "mesh" : 5,
            "name" : "plastic_dark",
            "scale" : [
                0.5,
                0.5,
                0.5
            ],
            "translation" : [
                -0.28373751044273376,
                -0.8733749389648438,
                0
            ]
        },
        {
            "mesh" : 6,
            "name" : "plastic_white",
            "scale" : [
                0.5,
                0.5,
                0.5
            ],
            "translation" : [
                0,
                1.142520546913147,
                -0.0002352090523345396
            ]
        },
        {
            "mesh" : 7,
            "name" : "tex_01",
            "scale" : [
                0.5,
                0.5,
                0.5
            ]
        },
        {
            "children" : [
                0,
                1,
                2,
                3,
                4,
                5,
                6,
                7
            ],
            "mesh" : 8,
            "name" : "_root"
        },
        {
            "name" : "Lamp",
            "translation" : [
                0.006460428237915039,
                15.10659408569336,
                -0.0004907819675281644
            ]
        },
        {
            "name" : "Lamp.001",
            "translation" : [
                -7.901754379272461,
                -9.723454475402832,
                -5.925168991088867
            ]
        },
        {
            "name" : "Lamp.002",
            "translation" : [
                10.522478103637695,
                4.768708229064941,
                -5.5675435066223145
            ]
        }
    ],
    "materials" : [
        {
            "doubleSided" : true,
            "name" : "aluminum",
            "pbrMetallicRoughness" : {
                "baseColorFactor" : [
                    0.4953449070453644,
                    0.4953449070453644,
                    0.4953449070453644,
                    1
                ],
                "metallicFactor" : 0,
                "roughnessFactor" : 0.5
            }
        },
        {
            "doubleSided" : true,
            "name" : "black_krinkle",
            "pbrMetallicRoughness" : {
                "baseColorFactor" : [
                    0.18431372940540314,
                    0.18431372940540314,
                    0.18431372940540314,
                    1
                ],
                "metallicFactor" : 0,
                "roughnessFactor" : 0.5
            }
        },
        {
            "doubleSided" : true,
            "name" : "dish_AO",
            "pbrMetallicRoughness" : {
                "baseColorFactor" : [
                    0.800000011920929,
                    0.800000011920929,
                    0.800000011920929,
                    1
                ],
                "metallicFactor" : 0,
                "roughnessFactor" : 0.5
            }
        },
        {
            "doubleSided" : true,
            "name" : "foil_gold",
            "pbrMetallicRoughness" : {
                "baseColorFactor" : [
                    0.6196078658103943,
                    0.4588235318660736,
                    0.062745101749897,
                    1
                ],
                "metallicFactor" : 0,
                "roughnessFactor" : 0.5
            }
        },
        {
            "doubleSided" : true,
            "name" : "foil_gold_2",
            "pbrMetallicRoughness" : {
                "baseColorFactor" : [
                    0.800000011920929,
                    0.800000011920929,
                    0.800000011920929,
                    1
                ],
                "metallicFactor" : 0,
                "roughnessFactor" : 0.5
            }
        },
        {
            "doubleSided" : true,
            "name" : "plastic_dark",
            "pbrMetallicRoughness" : {
                "baseColorFactor" : [
                    0.207596555352211,
                    0.207596555352211,
                    0.207596555352211,
                    1
                ],
                "metallicFactor" : 0,
                "roughnessFactor" : 0.5
            }
        },
        {
            "doubleSided" : true,
            "name" : "plastic_white",
            "pbrMetallicRoughness" : {
                "baseColorFactor" : [
                    0.9269806146621704,
                    0.9269806146621704,
                    0.9269806146621704,
                    1
                ],
                "metallicFactor" : 0,
                "roughnessFactor" : 0.5
            }
        },
        {
            "doubleSided" : true,
            "name" : "tex_01",
            "pbrMetallicRoughness" : {
                "baseColorFactor" : [
                    0.800000011920929,
                    0.800000011920929,
                    0.800000011920929,
                    1
                ],
                "metallicFactor" : 0,
                "roughnessFactor" : 0.5
            }
        }
    ],
    "meshes" : [
        {
            "name" : "Mesh.108",
            "primitives" : [
                {
                    "attributes" : {
                        "POSITION" : 0,
                        "NORMAL" : 1,
                        "TEXCOORD_0" : 2
                    },
                    "indices" : 3,
                    "material" : 0
                }
            ]
        },
        {
            "name" : "Mesh.131",
            "primitives" : [
                {
                    "attributes" : {
                        "POSITION" : 4,
                        "NORMAL" : 5,
                        "TEXCOORD_0" : 6
                    },
                    "indices" : 7,
                    "material" : 1
                }
            ]
        },
        {
            "name" : "Mesh.098",
            "primitives" : [
                {
                    "attributes" : {
                        "POSITION" : 8,
                        "NORMAL" : 9,
                        "TEXCOORD_0" : 10
                    },
                    "indices" : 11,
                    "material" : 2
                }
            ]
        },
        {
            "name" : "Mesh.010",
            "primitives" : [
                {
                    "attributes" : {
                        "POSITION" : 12,
                        "NORMAL" : 13,
                        "TEXCOORD_0" : 14
                    },
                    "indices" : 15,
                    "material" : 3
                }
            ]
        },
        {
            "name" : "Mesh.003",
            "primitives" : [
                {
                    "attributes" : {
                        "POSITION" : 16,
                        "NORMAL" : 17,
                        "TEXCOORD_0" : 18
                    },
                    "indices" : 19,
                    "material" : 4
                }
            ]
        },
        {
            "name" : "Mesh.019",
            "primitives" : [
                {
                    "attributes" : {
                        "POSITION" : 20,
                        "NORMAL" : 21
                    },
                    "indices" : 22,
                    "material" : 5
                }
            ]
        },
        {
            "name" : "Mesh.001",
            "primitives" : [
                {
                    "attributes" : {
                        "POSITION" : 23,
                        "NORMAL" : 24,
                        "TEXCOORD_0" : 25
                    },
                    "indices" : 26,
                    "material" : 6
                }
            ]
        },
        {
            "name" : "Cube",
            "primitives" : [
                {
                    "attributes" : {
                        "POSITION" : 27,
                        "NORMAL" : 28,
                        "TEXCOORD_0" : 29
                    },
                    "indices" : 30,
                    "material" : 7
                }
            ]
        },
        {
            "name" : "Cube.003",
            "primitives" : [
                {
                    "attributes" : {
                        "POSITION" : 31,
                        "NORMAL" : 32
                    },
                    "indices" : 33
                }
            ]
        }
    ],
    "accessors" : [
        {
            "bufferView" : 0,
            "componentType" : 5126,
            "count" : 5937,
            "max" : [
                17.982961654663086,
                11.662354469299316,
                12.81938362121582
            ],
            "min" : [
                -17.982961654663086,
                -11.662354469299316,
                -12.81938362121582
            ],
            "type" : "VEC3"
        },
        {
            "bufferView" : 1,
            "componentType" : 5126,
            "count" : 5937,
            "type" : "VEC3"
        },
        {
            "bufferView" : 2,
            "componentType" : 5126,
            "count" : 5937,
            "type" : "VEC2"
        },
        {
            "bufferView" : 3,
            "componentType" : 5123,
            "count" : 9444,
            "type" : "SCALAR"
        },
        {
            "bufferView" : 4,
            "componentType" : 5126,
            "count" : 1391,
            "max" : [
                3.0257513523101807,
                2.839315414428711,
                4.074949741363525
            ],
            "min" : [
                -3.0257513523101807,
                -4.143948078155518,
                -4.074949741363525
            ],
            "type" : "VEC3"
        },
        {
            "bufferView" : 5,
            "componentType" : 5126,
            "count" : 1391,
            "type" : "VEC3"
        },
        {
            "bufferView" : 6,
            "componentType" : 5126,
            "count" : 1391,
            "type" : "VEC2"
        },
        {
            "bufferView" : 7,
            "componentType" : 5123,
            "count" : 5904,
            "type" : "SCALAR"
        },
        {
            "bufferView" : 8,
            "componentType" : 5126,
            "count" : 3190,
            "max" : [
                4.004606246948242,
                0.80339515209198,
                4.200396537780762
            ],
            "min" : [
                -4.013400077819824,
                -0.9594762921333313,
                -3.7966084480285645
            ],
            "type" : "VEC3"
        },
        {
            "bufferView" : 9,
            "componentType" : 5126,
            "count" : 3190,
            "type" : "VEC3"
        },
        {
            "bufferView" : 10,
            "componentType" : 5126,
            "count" : 3190,
            "type" : "VEC2"
        },
        {
            "bufferView" : 11,
            "componentType" : 5123,
            "count" : 8358,
            "type" : "SCALAR"
        },
        {
            "bufferView" : 12,
            "componentType" : 5126,
            "count" : 7947,
            "max" : [
                3.6726396083831787,
                4.342129707336426,
                12.617223739624023
            ],
            "min" : [
                -3.6726396083831787,
                -4.342129707336426,
                -12.617223739624023
            ],
            "type" : "VEC3"
        },
        {
            "bufferView" : 13,
            "componentType" : 5126,
            "count" : 7947,
            "type" : "VEC3"
        },
        {
            "bufferView" : 14,
            "componentType" : 5126,
            "count" : 7947,
            "type" : "VEC2"
        },
        {
            "bufferView" : 15,
            "componentType" : 5123,
            "count" : 31551,
            "type" : "SCALAR"
        },
        {
            "bufferView" : 16,
            "componentType" : 5126,
            "count" : 120,
            "max" : [
                2.018733024597168,
                0.639101505279541,
                2.019991874694824
            ],
            "min" : [
                -2.2792036533355713,
                -0.2982480525970459,
                -2.277942657470703
            ],
            "type" : "VEC3"
        },
        {
            "bufferView" : 17,
            "componentType" : 5126,
            "count" : 120,
            "type" : "VEC3"
        },
        {
            "bufferView" : 18,
            "componentType" : 5126,
            "count" : 120,
            "type" : "VEC2"
        },
        {
            "bufferView" : 19,
            "componentType" : 5123,
            "count" : 144,
            "type" : "SCALAR"
        },
        {
            "bufferView" : 20,
            "componentType" : 5126,
            "count" : 7206,
            "max" : [
                3.0790719985961914,
                3.4526314735412598,
                4.061075210571289
            ],
            "min" : [
                -3.0790719985961914,
                -4.454684734344482,
                -4.061075210571289
            ],
            "type" : "VEC3"
        },
        {
            "bufferView" : 21,
            "componentType" : 5126,
            "count" : 7206,
            "type" : "VEC3"
        },
        {
            "bufferView" : 22,
            "componentType" : 5123,
            "count" : 16149,
            "type" : "SCALAR"
        },
        {
            "bufferView" : 23,
            "componentType" : 5126,
            "count" : 1942,
            "max" : [
                2.1669728755950928,
                4.245158672332764,
                2.3083620071411133
            ],
            "min" : [
                -3.472580671310425,
                -4.245158672332764,
                -3.214339256286621
            ],
            "type" : "VEC3"
        },
        {
            "bufferView" : 24,
            "componentType" : 5126,
            "count" : 1942,
            "type" : "VEC3"
        },
        {
            "bufferView" : 25,
            "componentType" : 5126,
            "count" : 1942,
            "type" : "VEC2"
        },
        {
            "bufferView" : 26,
            "componentType" : 5123,
            "count" : 3066,
            "type" : "SCALAR"
        },
        {
            "bufferView" : 27,
            "componentType" : 5126,
            "count" : 360,
            "max" : [
                2.212214708328247,
                2.726522445678711,
                2.5455005168914795
            ],
            "min" : [
                -2.9959144592285156,
                -0.9034949541091919,
                -2.0361597537994385
            ],
            "type" : "VEC3"
        },
        {
            "bufferView" : 28,
            "componentType" : 5126,
            "count" : 360,
            "type" : "VEC3"
        },
        {
            "bufferView" : 29,
            "componentType" : 5126,
            "count" : 360,
            "type" : "VEC2"
        },
        {
            "bufferView" : 30,
            "componentType" : 5123,
            "count" : 540,
            "type" : "SCALAR"
        },
        {
            "bufferView" : 31,
            "componentType" : 5126,
            "count" : 24,
            "max" : [
                0.5000002384185791,
                0.5,
                0.5000002980232239
            ],
            "min" : [
                -0.5000001788139343,
                -0.5,
                -0.5000001788139343
            ],
            "type" : "VEC3"
        },
        {
            "bufferView" : 32,
            "componentType" : 5126,
            "count" : 24,
            "type" : "VEC3"
        },
        {
            "bufferView" : 33,
            "componentType" : 5123,
            "count" : 36,
            "type" : "SCALAR"
        }
    ],
    "bufferViews" : [
        {
            "buffer" : 0,
            "byteLength" : 71244,
            "byteOffset" : 0
        },
        {
            "buffer" : 0,
            "byteLength" : 71244,
            "byteOffset" : 71244
        },
        {
            "buffer" : 0,
            "byteLength" : 47496,
            "byteOffset" : 142488
        },
        {
            "buffer" : 0,
            "byteLength" : 18888,
            "byteOffset" : 189984
        },
        {
            "buffer" : 0,
            "byteLength" : 16692,
            "byteOffset" : 208872
        },
        {
            "buffer" : 0,
            "byteLength" : 16692,
            "byteOffset" : 225564
        },
        {
            "buffer" : 0,
            "byteLength" : 11128,
            "byteOffset" : 242256
        },
        {
            "buffer" : 0,
            "byteLength" : 11808,
            "byteOffset" : 253384
        },
        {
            "buffer" : 0,
            "byteLength" : 38280,
            "byteOffset" : 265192
        },
        {
            "buffer" : 0,
            "byteLength" : 38280,
            "byteOffset" : 303472
        },
        {
            "buffer" : 0,
            "byteLength" : 25520,
            "byteOffset" : 341752
        },
        {
            "buffer" : 0,
            "byteLength" : 16716,
            "byteOffset" : 367272
        },
        {
            "buffer" : 0,
            "byteLength" : 95364,
            "byteOffset" : 383988
        },
        {
            "buffer" : 0,
            "byteLength" : 95364,
            "byteOffset" : 479352
        },
        {
            "buffer" : 0,
            "byteLength" : 63576,
            "byteOffset" : 574716
        },
        {
            "buffer" : 0,
            "byteLength" : 63102,
            "byteOffset" : 638292
        },
        {
            "buffer" : 0,
            "byteLength" : 1440,
            "byteOffset" : 701396
        },
        {
            "buffer" : 0,
            "byteLength" : 1440,
            "byteOffset" : 702836
        },
        {
            "buffer" : 0,
            "byteLength" : 960,
            "byteOffset" : 704276
        },
        {
            "buffer" : 0,
            "byteLength" : 288,
            "byteOffset" : 705236
        },
        {
            "buffer" : 0,
            "byteLength" : 86472,
            "byteOffset" : 705524
        },
        {
            "buffer" : 0,
            "byteLength" : 86472,
            "byteOffset" : 791996
        },
        {
            "buffer" : 0,
            "byteLength" : 32298,
            "byteOffset" : 878468
        },
        {
            "buffer" : 0,
            "byteLength" : 23304,
            "byteOffset" : 910768
        },
        {
            "buffer" : 0,
            "byteLength" : 23304,
            "byteOffset" : 934072
        },
        {
            "buffer" : 0,
            "byteLength" : 15536,
            "byteOffset" : 957376
        },
        {
            "buffer" : 0,
            "byteLength" : 6132,
            "byteOffset" : 972912
        },
        {
            "buffer" : 0,
            "byteLength" : 4320,
            "byteOffset" : 979044
        },
        {
            "buffer" : 0,
            "byteLength" : 4320,
            "byteOffset" : 983364
        },
        {
            "buffer" : 0,
            "byteLength" : 2880,
            "byteOffset" : 987684
        },
        {
            "buffer" : 0,
            "byteLength" : 1080,
            "byteOffset" : 990564
        },
        {
            "buffer" : 0,
            "byteLength" : 288,
            "byteOffset" : 991644
        },
        {
            "buffer" : 0,
            "byteLength" : 288,
            "byteOffset" : 991932
        },
        {
            "buffer" : 0,
            "byteLength" : 72,
            "byteOffset" : 992220
        }
    ],
    "buffers" : [
        {
            "byteLength" : 992292,
            "uri" : "data:application/octet-stream;base64,"
        }
    ]
}
